<?xml version="1.0" encoding="utf-8"?>
<!-- Generator: Adobe Illustrator 22.1.0, SVG Export Plug-In . SVG Version: 6.00 Build 0)  -->
<svg version="1.1" id="Calque_1" xmlns="http://www.w3.org/2000/svg" xmlns:xlink="http://www.w3.org/1999/xlink" x="0px" y="0px"
	 width="108.3px" height="107.4px" viewBox="0 0 108.3 107.4" style="enable-background:new 0 0 108.3 107.4;" xml:space="preserve"
	>
<style type="text/css">
	.st0{fill:#FFE52C;}
	.st1{fill:#0A0204;stroke:#0A0204;stroke-width:0.5;}
</style>
<g>
	<g>
		<g>
			<circle class="st0" cx="53.1" cy="53.1" r="53.1"/>
		</g>
		<g>
			<path class="st1" d="M35.2,46.2c0,1.6-0.9,3.6-2.8,5.9l-3.3,4.1v4.7c0,0.6,0.5,0.9,1.4,1c0.4,0,0.6,0.2,0.6,0.6
				c0,0.4-0.2,0.6-0.6,0.6h-6.2c-0.4,0-0.6-0.2-0.7-0.6c0-0.2,0-0.3,0.1-0.4c0.1-0.1,0.3-0.2,0.5-0.2c0.8-0.1,1.2-0.4,1.2-1v-4.7
				L20,46.9c-0.3-0.5-0.7-0.8-1.1-0.8c-0.1,0-0.1,0-0.2,0c-0.5,0-0.7-0.2-0.7-0.7c0-0.4,0.2-0.6,0.7-0.6H24c0.4,0,0.6,0.2,0.6,0.6
				c0,0.4-0.2,0.5-0.6,0.5c-0.2,0-0.3,0.1-0.3,0.2c0,0.2,0.1,0.4,0.2,0.6l4.3,7l2.1-2.4c1.1-1.3,1.7-2.4,1.7-3.5s-0.2-1.6-0.9-1.8
				c-0.3,0-0.5,0-0.6,0.2c0,0.2-0.1,0.3-0.3,0.5c-0.2,0-0.4-0.1-0.7-0.3c-0.4-0.3-0.6-0.6-0.6-1c-0.1-0.7,0.2-1.3,0.7-1.9
				c0.5-0.6,1.2-1,2.1-1c1,0,1.8,0.3,2.5,0.9S35.1,45.2,35.2,46.2z"/>
			<path class="st1" d="M52.1,54c0,2.6-0.9,4.8-2.6,6.7c-1.7,1.9-3.8,2.8-6.2,2.8s-4.5-0.9-6.2-2.7s-2.5-4.1-2.5-6.7
				c0-2.6,0.9-4.9,2.5-6.7c1.7-1.8,3.7-2.8,6.1-2.8c2.4,0,4.5,0.9,6.2,2.8C51.2,49.2,52.1,51.4,52.1,54z M48.4,54
				c0-2.1-0.4-3.9-1.3-5.4c-1-1.6-2.2-2.4-3.7-2.4s-2.7,0.8-3.6,2.4C39,50,38.6,51.8,38.6,54s0.4,4,1.2,5.4c0.9,1.6,2.1,2.5,3.6,2.5
				s2.8-0.8,3.7-2.5C47.9,57.9,48.4,56.1,48.4,54z"/>
			<path class="st1" d="M71.3,54c0,2.6-0.9,4.8-2.6,6.7s-3.8,2.8-6.2,2.8c-2.4,0-4.5-0.9-6.2-2.7s-2.5-4.1-2.5-6.7
				c0-2.6,0.9-4.9,2.5-6.7c1.7-1.8,3.7-2.8,6.1-2.8c2.4,0,4.5,0.9,6.2,2.8C70.4,49.2,71.3,51.4,71.3,54z M67.5,54
				c0-2.1-0.4-3.9-1.3-5.4c-1-1.6-2.2-2.4-3.7-2.4s-2.7,0.8-3.6,2.4c-0.8,1.4-1.2,3.3-1.2,5.4c0,2.2,0.4,4,1.2,5.4
				c0.9,1.6,2.1,2.5,3.6,2.5s2.8-0.8,3.7-2.5C67.1,57.9,67.5,56.1,67.5,54z"/>
			<path class="st1" d="M88.6,45.5c0,0.4-0.1,0.7-0.6,0.7c-0.7,0-1.1,0.3-1.1,0.9v16.1h-2.1l-9.5-12.3V61c0,0.7,0.3,1,1,1
				c0.4,0,0.7,0.2,0.6,0.7c0,0.4-0.2,0.6-0.6,0.6H72c-0.4,0-0.6-0.2-0.6-0.6c0-0.5,0.2-0.7,0.6-0.6c0.9,0,1.3-0.4,1.3-1V47
				c0-0.6-0.3-0.9-0.8-0.9c-0.4,0-0.6-0.2-0.6-0.7c0-0.4,0.2-0.5,0.6-0.5h2.9c0,0,3.2,4,9.5,12.2v-10c0-0.7-0.3-1-0.9-1
				c-0.4,0-0.6-0.3-0.6-0.7s0.2-0.6,0.6-0.6h4.1C88.4,44.9,88.6,45.1,88.6,45.5z"/>
		</g>
	</g>
</g>
</svg>
